<?xml version="1.0" encoding="utf-8"?>
<!DOCTYPE svg PUBLIC "-//W3C//DTD SVG 1.1//EN" "http://www.w3.org/Graphics/SVG/1.1/DTD/svg11.dtd">
<svg version="1.1" id="chromecast-icon" xmlns="http://www.w3.org/2000/svg" xmlns:xlink="http://www.w3.org/1999/xlink" x="0px" y="0px"
	 width="293.671px" height="224.571px" viewBox="0 0 293.671 224.571" enable-background="new 0 0 293.671 224.571"
	 xml:space="preserve">
	<g fill="#FFF">
		<path fill-rule="evenodd" clip-rule="evenodd" d="M17.275,0v95.016c7.94,1.614,15.627,3.909,23.033,6.768V23.032h230.33v161.231
			H122.785c2.861,7.407,5.155,15.092,6.771,23.032h164.115V0H17.275z"/>
		<path d="M0,191.527v33.044h33.037C28.87,208.398,16.167,195.701,0,191.527z"/>
		<path d="M0,150.569v23.274c25.738,4.734,45.993,24.989,50.728,50.728h23.275C68.864,186.108,38.469,155.709,0,150.569z"/>
		<path d="M0,109.952v23.162c48.034,5.32,86.144,43.423,91.458,91.458h23.162C109.143,163.806,60.771,115.435,0,109.952z"/>
	</g>
</svg>
